<svg xmlns="http://www.w3.org/2000/svg" viewBox="0 0 512 512"><path d="M32 424H52v56H68V424H88a8 8 0 008-8V304a8 8 0 00-8-8H68V224H52v72H32a8 8 0 00-8 8V416A8 8 0 0032 424zm8-112H80v96H40zM148 128v72H128a8 8 0 00-8 8V320a8 8 0 008 8h20v56h16V328h20a8 8 0 008-8V208a8 8 0 00-8-8H164V128zm28 88v96H136V216zM252 176v72H232a8 8 0 00-8 8V368a8 8 0 008 8h20v56h16V376h20a8 8 0 008-8V256a8 8 0 00-8-8H268V176zm28 88v96H240V264zM348 32v72H328a8 8 0 00-8 8V224a8 8 0 008 8h20v56h16V232h20a8 8 0 008-8V112a8 8 0 00-8-8H364V32zm28 88v96H336V120zM424 20.539a8 8 0 00-8 8v112a8 8 0 008 8h20v56h16v-56h20a8 8 0 008-8v-112a8 8 0 00-8-8zm48 112H432v-96h40z" data-name="out line"/></svg>